# xmcd
# Copyright (C) 1995-1998 Ti Kan
#
# Track frame offsets:
#       150
#       17774
#       40670
#       53361
#       76941
#       93572
#       122691
#       141981
#       159635
#
# Disc length: 2473 seconds
#
# Revision: 0
# Processed by: cddbd v1.5.2PL0 Copyright (c) Steve Scherf et al.
# Submitted via: CD-Transfer v1.0
#
DISCID=6809a709
DTITLE=Dirty Projectors - D. Longstreth
DYEAR=09
DGENRE=
TTITLE0=Cannibal Resource
TTITLE1=Temecula Sunrise
TTITLE2=The Bride
TTITLE3=Stillness Is The Move
TTITLE4=Two Doves
TTITLE5=Useful Chamber
TTITLE6=No Intention
TTITLE7=Remade Horizon
TTITLE8=Fluorescent Half Dome
EXTD=
EXTT0=
EXTT1=
EXTT2=
EXTT3=
EXTT4=
EXTT5=
EXTT6=
EXTT7=
EXTT8=
PLAYORDER=
